<svg width="32" height="32" viewBox="0 0 32 32" fill="none" xmlns="http://www.w3.org/2000/svg">
  <defs>
    <linearGradient id="brainGradient" x1="0%" y1="0%" x2="100%" y2="100%">
      <stop offset="0%" style="stop-color:#06b6d4;stop-opacity:1" />
      <stop offset="100%" style="stop-color:#3b82f6;stop-opacity:1" />
    </linearGradient>
  </defs>
  
  <!-- Brain outline -->
  <path d="M16 4C12.5 4 9.5 6.5 9 10C8.5 10 8 10.2 7.5 10.5C6.5 11 6 12 6 13C6 13.5 6.1 14 6.3 14.4C5.5 15.2 5 16.3 5 17.5C5 19.4 6.3 21 8 21.5C8.2 23.4 9.7 25 11.5 25.5C12.3 26.4 13.5 27 15 27C16.5 27 17.7 26.4 18.5 25.5C20.3 25 21.8 23.4 22 21.5C23.7 21 25 19.4 25 17.5C25 16.3 24.5 15.2 23.7 14.4C23.9 14 24 13.5 24 13C24 12 23.5 11 22.5 10.5C22 10.2 21.5 10 21 10C20.5 6.5 17.5 4 16 4Z" 
        fill="url(#brainGradient)" 
        stroke="url(#brainGradient)" 
        stroke-width="0.5"/>
  
  <!-- Neural connections -->
  <circle cx="12" cy="12" r="1.5" fill="#ffffff" opacity="0.8"/>
  <circle cx="20" cy="12" r="1.5" fill="#ffffff" opacity="0.8"/>
  <circle cx="16" cy="16" r="1.5" fill="#ffffff" opacity="0.8"/>
  <circle cx="13" cy="20" r="1.5" fill="#ffffff" opacity="0.8"/>
  <circle cx="19" cy="20" r="1.5" fill="#ffffff" opacity="0.8"/>
  
  <!-- Connection lines -->
  <line x1="12" y1="12" x2="16" y2="16" stroke="#ffffff" stroke-width="1" opacity="0.6"/>
  <line x1="20" y1="12" x2="16" y2="16" stroke="#ffffff" stroke-width="1" opacity="0.6"/>
  <line x1="16" y1="16" x2="13" y2="20" stroke="#ffffff" stroke-width="1" opacity="0.6"/>
  <line x1="16" y1="16" x2="19" y2="20" stroke="#ffffff" stroke-width="1" opacity="0.6"/>
  <line x1="12" y1="12" x2="20" y2="12" stroke="#ffffff" stroke-width="1" opacity="0.4"/>
  <line x1="13" y1="20" x2="19" y2="20" stroke="#ffffff" stroke-width="1" opacity="0.4"/>
</svg>